<?xml version="1.0" standalone="no"?>
<!DOCTYPE svg PUBLIC "-//W3C//DTD SVG 20010904//EN"
 "http://www.w3.org/TR/2001/REC-SVG-20010904/DTD/svg10.dtd">
<svg version="1.0" xmlns="http://www.w3.org/2000/svg"
 width="260.000000pt" height="260.000000pt" viewBox="0 0 260.000000 260.000000"
 preserveAspectRatio="xMidYMid meet">
<metadata>
Created by potrace 1.11, written by Peter Selinger 2001-2013
</metadata>
<g transform="translate(0.000000,260.000000) scale(0.100000,-0.100000)"
fill="#000000" stroke="none">
<path d="M560 1737 c-178 -50 -271 -240 -200 -406 42 -96 164 -181 261 -181
26 0 29 3 29 35 0 33 -2 35 -35 35 -101 0 -196 91 -211 203 -19 140 104 267
246 254 91 -8 155 -52 191 -132 27 -57 24 -81 -7 -89 -43 -11 -138 -114 -157
-170 -50 -147 18 -306 158 -372 99 -47 232 -26 322 50 33 28 93 136 93 168 0
13 7 18 25 18 22 0 25 4 25 35 0 34 -1 35 -42 36 -24 1 -35 3 -25 6 21 6 21
13 2 61 -36 86 -99 148 -182 178 -21 7 -30 13 -21 14 12 0 21 14 28 41 23 83
127 159 220 159 91 0 197 -75 219 -156 28 -100 4 -181 -74 -254 -48 -44 -48
-44 -41 -15 9 37 47 88 87 117 22 16 29 30 29 55 0 18 -4 33 -8 33 -20 0 -102
-64 -125 -98 -43 -61 -57 -107 -57 -180 0 -167 127 -292 295 -292 52 0 83 6
120 24 68 31 140 112 162 182 16 51 19 54 49 54 100 0 222 84 264 181 48 114
19 252 -72 334 -61 56 -120 79 -203 79 -86 0 -150 -28 -212 -92 -49 -50 -92
-150 -71 -164 8 -5 -2 -8 -27 -6 -35 3 -40 6 -46 33 -9 48 -44 107 -86 147
-144 139 -376 97 -469 -84 -27 -52 -31 -84 -11 -91 6 -3 -5 -6 -25 -6 -35 -1
-38 -3 -38 -30 0 -22 6 -30 25 -35 16 -4 25 -13 25 -26 0 -62 93 -183 162
-210 18 -8 34 -14 35 -15 2 -1 -4 -24 -12 -52 -30 -101 -146 -175 -247 -159
-82 13 -153 67 -182 138 -25 58 -21 71 29 97 52 27 95 73 127 134 18 34 23 58
23 127 0 76 -3 91 -30 139 -66 119 -210 183 -335 148z m1467 -81 c148 -69 176
-276 51 -381 -48 -41 -90 -55 -155 -54 -32 1 -50 3 -40 6 20 5 18 22 -15 90
-25 54 -106 127 -161 146 -23 9 -35 16 -26 16 10 1 19 13 22 29 3 15 18 45 32
67 65 99 183 131 292 81z m-1194 -317 c-15 -29 -42 -61 -60 -73 -18 -12 -33
-28 -34 -36 0 -10 -2 -11 -6 -2 -8 21 37 100 78 135 21 19 40 40 40 48 1 9 3
7 6 -3 2 -10 -8 -41 -24 -69z m798 54 c47 -120 85 -169 158 -206 l49 -24 -18
-52 c-55 -163 -258 -211 -379 -90 -43 44 -72 116 -70 173 2 31 2 31 6 4 2 -16
8 -28 12 -28 4 0 29 14 55 32 51 33 111 114 121 163 11 51 14 55 35 55 13 0
24 -10 31 -27z m-591 7 c18 -12 2 -12 -25 0 -13 6 -15 9 -5 9 8 0 22 -4 30 -9z
m627 4 c-3 -3 -12 -4 -19 -1 -8 3 -5 6 6 6 11 1 17 -2 13 -5z m51 -18 c39 -20
78 -65 97 -109 l16 -39 -32 19 c-33 19 -79 72 -79 91 0 7 -9 21 -20 32 -24 24
-19 25 18 6z m-584 -58 c20 -23 36 -47 36 -54 0 -7 10 -20 22 -28 28 -20 16
-21 -20 -2 -47 25 -112 104 -112 136 0 18 35 -6 74 -52z m93 -174 c-3 -3 -12
-4 -19 -1 -8 3 -5 6 6 6 11 1 17 -2 13 -5z m650 0 c-3 -3 -12 -4 -19 -1 -8 3
-5 6 6 6 11 1 17 -2 13 -5z"/>
</g>
</svg>
